<?xml version="1.0" encoding="UTF-8" standalone="no"?>
<!DOCTYPE svg PUBLIC "-//W3C//DTD SVG 1.1//EN" "http://www.w3.org/Graphics/SVG/1.1/DTD/svg11.dtd">
<svg width="100%" height="100%" viewBox="0 0 512 512" version="1.1" xmlns="http://www.w3.org/2000/svg" xmlns:xlink="http://www.w3.org/1999/xlink" xml:space="preserve" style="fill-rule:evenodd;clip-rule:evenodd;stroke-linejoin:round;stroke-miterlimit:1.41421;">
    <g transform="matrix(0.64,0,0,0.64,0,0)">
        <rect x="0" y="0" width="800" height="800" style="fill:rgb(1,113,187);"/>
        <path d="M50,640L308.765,800L800,800L800,257.877L754,146L754,640L567.639,640L424.881,408.633L424.881,640L248,640L248,168.842L228,146L228,640L50,640" style="fill:rgb(1,94,151);"/>
        <rect x="50" y="146" width="178" height="494" style="fill:white;fill-rule:nonzero;"/>
        <path d="M248,146L248,640L425,640L425,411L457.424,462L531,581L556.947,623L566.642,640L754,640L754,146L568,146L568,390L554.551,368L527.691,322L461.452,209L435.4,164L425,146L410,146L376,146L248,146Z" style="fill:white;fill-rule:nonzero;"/>
    </g>
</svg>
